<svg xmlns="http://www.w3.org/2000/svg" xmlns:xlink="http://www.w3.org/1999/xlink" width="500" zoomAndPan="magnify" viewBox="0 0 375 374.999991" height="500" preserveAspectRatio="xMidYMid meet" version="1.0"><defs><clipPath id="fb91b5f47a"><path d="M 246 37.566406 L 314.445312 37.566406 L 314.445312 104 L 246 104 Z M 246 37.566406 " clip-rule="nonzero"/></clipPath><clipPath id="9d2baf766c"><path d="M 128 126 L 300 126 L 300 337.566406 L 128 337.566406 Z M 128 126 " clip-rule="nonzero"/></clipPath><clipPath id="1369619fdf"><path d="M 60.195312 104 L 278 104 L 278 285 L 60.195312 285 Z M 60.195312 104 " clip-rule="nonzero"/></clipPath></defs><g clip-path="url(#fb91b5f47a)"><path fill="#ff6e31" d="M 282.503906 90.347656 C 283.113281 87.632812 284.386719 81.753906 284.882812 76.597656 C 284.9375 75.933594 285.601562 75.492188 286.265625 75.710938 L 314.378906 84.582031 L 314.269531 81.921875 C 314.269531 81.421875 313.992188 80.980469 313.605469 80.703125 L 304.859375 74.324219 L 305.359375 71.109375 C 305.414062 70.832031 305.191406 70.613281 304.917969 70.554688 L 301.929688 70.277344 C 301.652344 70.222656 301.375 70.5 301.429688 70.777344 L 301.484375 71.832031 L 297.167969 68.671875 L 297.613281 65.621094 C 297.667969 65.34375 297.445312 65.121094 297.222656 65.066406 L 293.960938 64.625 C 293.683594 64.566406 293.40625 64.84375 293.40625 65.121094 L 293.460938 65.953125 L 287.207031 61.40625 C 286.488281 60.910156 286.15625 60.023438 286.210938 59.191406 C 286.597656 55.640625 287.648438 46.328125 287.816406 44.109375 C 288.039062 41.394531 284.71875 37.566406 284.71875 37.566406 C 284.71875 37.566406 280.734375 40.617188 280.402344 43.390625 C 280.125 45.605469 279.347656 54.921875 279.015625 58.46875 C 278.960938 59.355469 278.410156 60.078125 277.632812 60.464844 L 270.660156 63.679688 L 270.828125 62.90625 C 270.882812 62.628906 270.714844 62.351562 270.382812 62.296875 L 267.0625 62.074219 C 266.789062 62.074219 266.566406 62.238281 266.566406 62.515625 L 266.398438 65.621094 L 261.585938 67.839844 L 261.863281 66.785156 C 261.917969 66.507812 261.75 66.230469 261.472656 66.175781 L 258.484375 65.898438 C 258.210938 65.898438 257.988281 66.066406 257.988281 66.34375 L 257.820312 69.558594 L 247.972656 74.160156 C 247.527344 74.382812 247.195312 74.769531 247.085938 75.214844 L 246.476562 77.820312 L 275.753906 74.660156 C 276.417969 74.601562 276.96875 75.15625 276.914062 75.824219 C 276.417969 80.980469 276.472656 86.96875 276.582031 89.738281 C 276.582031 90.679688 276.085938 91.570312 275.199219 91.957031 L 264.296875 96.890625 L 263.464844 100.328125 L 276.25 98.722656 C 276.417969 100.496094 278.296875 102.492188 278.296875 102.492188 C 278.296875 102.492188 280.511719 100.882812 281.007812 99.164062 L 293.238281 103.265625 L 293.128906 99.71875 L 283.390625 92.734375 C 282.613281 92.234375 282.28125 91.292969 282.503906 90.347656 Z M 282.503906 90.347656 " fill-opacity="1" fill-rule="nonzero"/></g><path fill="#ff6e31" d="M 159.925781 246.417969 C 137.625 234.054688 122.792969 209.828125 124.007812 182.273438 C 125.558594 146.734375 154.058594 117.792969 189.53125 115.796875 C 216.539062 114.300781 240.445312 128.328125 253.230469 149.726562 C 259.757812 136.921875 264.019531 125.609375 266.730469 117.40625 C 268.117188 113.082031 266.566406 108.367188 262.914062 105.707031 C 258.597656 102.546875 254.058594 99.828125 249.1875 97.445312 C 232.972656 89.460938 213.882812 85.746094 193.515625 86.300781 C 173.097656 85.746094 154.058594 89.515625 137.84375 97.445312 C 123.953125 104.265625 112.167969 114.1875 103.367188 127.273438 C 79.40625 162.8125 83.5 212.710938 109.511719 258.507812 C 112 262.886719 117.257812 264.828125 121.960938 263.164062 C 135.355469 258.507812 148.027344 252.960938 159.925781 246.417969 Z M 159.925781 246.417969 " fill-opacity="1" fill-rule="nonzero"/><g clip-path="url(#9d2baf766c)"><path fill="#243763" d="M 283.167969 126.441406 C 283.113281 126.441406 283.113281 126.441406 283.167969 126.441406 C 279.902344 149.285156 273.761719 170.019531 264.738281 188.480469 C 263.523438 190.976562 262.636719 193.636719 262.195312 196.355469 C 257.933594 223.132812 238.398438 244.921875 212.773438 252.296875 C 210.0625 253.074219 207.460938 254.292969 205.082031 255.902344 C 200.546875 258.894531 195.839844 261.722656 190.914062 264.328125 C 169.941406 275.582031 148.304688 282.402344 128.546875 286.503906 C 140.28125 301.03125 154.28125 314.667969 170.441406 326.644531 C 173.703125 329.03125 176.96875 331.359375 180.234375 333.574219 C 188.203125 338.898438 198.664062 338.898438 206.632812 333.574219 C 209.953125 331.359375 213.21875 329.085938 216.425781 326.644531 C 291.027344 271.203125 321.019531 181.332031 283.167969 126.441406 Z M 283.167969 126.441406 " fill-opacity="1" fill-rule="nonzero"/></g><path fill="#ff6e31" d="M 246.644531 217.699219 C 242.105469 223.578125 237.179688 229.121094 231.867188 234.332031 C 237.734375 229.730469 242.769531 224.078125 246.644531 217.699219 Z M 246.644531 217.699219 " fill-opacity="1" fill-rule="nonzero"/><g clip-path="url(#1369619fdf)"><path fill="#ff6e31" d="M 60.3125 284.507812 C 60.3125 284.507812 265.734375 301.140625 277.855469 104.875 C 277.855469 104.929688 247.859375 262.164062 60.3125 284.507812 Z M 60.3125 284.507812 " fill-opacity="1" fill-rule="nonzero"/></g><path fill="#243763" d="M 175.917969 178.058594 L 195.066406 194.804688 C 196.226562 195.800781 198.054688 195.191406 198.386719 193.695312 L 201.816406 176.5625 C 201.984375 175.839844 202.8125 175.507812 203.421875 175.953125 L 213.382812 183.269531 C 214.601562 184.15625 216.316406 183.4375 216.539062 181.941406 L 222.847656 143.351562 C 222.957031 142.574219 223.953125 142.1875 224.5625 142.742188 L 244.207031 160.097656 C 245.371094 161.148438 247.195312 160.816406 247.972656 159.484375 C 248.359375 158.820312 248.691406 158.210938 249.078125 157.546875 C 234.414062 128.160156 197.167969 112.027344 160.089844 131.929688 C 151.679688 136.421875 144.707031 143.351562 140.167969 151.78125 C 121.351562 186.761719 134.46875 221.804688 160.480469 238.160156 C 161.695312 238.933594 163.246094 238.214844 163.523438 236.828125 L 174.203125 178.667969 C 174.371094 177.894531 175.308594 177.558594 175.917969 178.058594 Z M 175.917969 178.058594 " fill-opacity="1" fill-rule="nonzero"/></svg>